<svg xmlns="http://www.w3.org/2000/svg" width="151" height="162" viewBox="0 0 151 162" fill="none">
	<g clip-path="url(#clip0_2843_1503)">
		<path d="M85.403 51.9068C85.5153 50.784 85.8808 49.7014 86.472 48.7402C87.0632 47.7791 87.8646 46.9645 88.816 46.3579C89.7674 45.7512 90.844 45.3681 91.9648 45.2376C93.0856 45.1071 94.2215 45.2324 95.2868 45.6042L94.7458 45.6594C97.172 46.1447 99.328 47.5221 100.788 49.5195C101.501 50.518 101.992 51.6582 102.226 52.8627C102.46 54.0673 102.432 55.3081 102.145 56.501C101.531 58.8701 99.7216 60.9255 97.4049 61.7141C96.1167 62.1526 94.7339 62.2062 93.3738 62.2524C92.4909 62.2824 91.5919 62.3093 90.7407 62.0727C89.6459 61.7336 88.6835 61.0626 87.9865 60.1527C87.2961 59.2461 86.7468 58.2404 86.3573 57.1695C85.6976 55.4947 85.2238 53.6979 85.403 51.9068Z" fill="#2F2E41" />
		<path d="M66.1677 161.06C68.0911 153.826 63.8197 146.775 58.8286 141.894C56.1687 139.293 53.2064 137.031 50.3176 134.696C47.5457 132.479 44.906 130.101 42.4121 127.576C37.5964 122.647 33.3956 117.014 30.6136 110.682C27.9682 104.66 26.7177 98.1013 27.3371 91.5312C27.9246 85.3002 30.1581 79.1708 34.2666 74.3901C34.7786 73.7944 35.3171 73.2234 35.8823 72.6771C36.1853 72.3828 36.6497 72.8462 36.3462 73.141C31.7582 77.5959 29.0878 83.6331 28.1841 89.9138C27.2521 96.3909 28.2124 102.994 30.6344 109.05C33.2146 115.501 37.3174 121.257 42.0755 126.28C44.4717 128.794 47.0207 131.157 49.7081 133.356C52.5781 135.721 55.5602 137.954 58.293 140.481C63.3297 145.137 67.8564 151.542 67.2346 158.752C67.1621 159.59 67.0168 160.421 66.8003 161.235C66.7749 161.316 66.7189 161.384 66.6442 161.425C66.5694 161.466 66.4818 161.476 66.3998 161.453C66.3177 161.431 66.2477 161.377 66.2044 161.304C66.1611 161.23 66.1479 161.143 66.1677 161.06Z" fill="#D7D7D7" />
		<path d="M46.0257 119.876C49.0567 114.68 51.3748 109.099 52.9176 103.285C54.4653 97.4714 55.2394 91.4794 55.2199 85.4638C55.1978 79.4485 54.4675 73.2825 52.6027 67.5462C50.8328 62.102 47.6617 56.91 42.6273 53.9391C40.0598 52.4331 37.1288 51.659 34.1525 51.7011C31.0088 51.7308 27.9086 52.5583 25.0762 53.8981C22.3021 55.2104 19.7654 56.9788 17.4221 58.9501C15.188 60.8265 13.1031 62.8738 11.1864 65.0735C7.38872 69.4406 4.2861 74.4972 2.55316 80.0415C0.747166 85.8196 0.430611 92.1397 2.1067 97.9876C3.71656 103.604 7.24326 108.392 11.5729 112.238C16.2519 116.393 21.7945 119.414 27.3834 122.155C28.7823 122.841 30.1887 123.511 31.5952 124.182C31.9761 124.363 31.6436 124.929 31.264 124.748C25.3707 121.939 19.4192 119.106 14.1657 115.185C9.53035 111.725 5.39854 107.381 2.94046 102.09C0.341049 96.495 -0.191647 90.1331 0.88575 84.0965C1.9387 78.1968 4.58022 72.675 8.11552 67.866C9.87228 65.4869 11.8247 63.2587 13.9524 61.2046C16.1353 59.0489 18.5189 57.1063 21.0706 55.4031C26.3011 51.9842 32.8422 49.9196 39.041 51.6807C44.5518 53.2463 48.7931 57.6618 51.3169 62.6658C52.7294 65.4666 53.6815 68.4787 54.3587 71.5352C55.0195 74.5472 55.4638 77.6027 55.6884 80.6782C56.589 92.9504 54.1837 105.24 48.7227 116.267C48.0575 117.604 47.3473 118.918 46.5922 120.207C46.5468 120.279 46.4751 120.331 46.3925 120.351C46.3098 120.371 46.2225 120.358 46.149 120.315C46.0755 120.272 46.0216 120.203 45.9986 120.121C45.9756 120.039 45.9853 119.951 46.0257 119.876Z" fill="#D7D7D7" />
		<path d="M50.18 113.535C53.211 108.338 55.5291 102.758 57.0719 96.9432C58.6196 91.13 59.3937 85.1381 59.3742 79.1225C59.3521 73.1072 58.6218 66.9412 56.757 61.2049C54.9871 55.7607 51.816 50.5687 46.7816 47.5978C44.2141 46.0917 41.2831 45.3177 38.3068 45.3598C35.1631 45.3895 32.0629 46.217 29.2305 47.5568C26.4564 48.869 23.9197 50.6375 21.5764 52.6088C19.3423 54.4852 17.2574 56.5325 15.3407 58.7322C11.543 63.0993 8.4404 68.1559 6.70746 73.7002C4.90146 79.4783 4.58491 85.7984 6.261 91.6463C7.87085 97.2631 11.3976 102.051 15.7272 105.896C20.4062 110.052 25.9488 113.072 31.5377 115.813C32.9366 116.5 34.343 117.17 35.7495 117.84C36.1304 118.022 35.7979 118.588 35.4183 118.407C29.525 115.598 23.5735 112.765 18.32 108.843C13.6847 105.383 9.55284 101.04 7.09475 95.7488C4.49535 90.1537 3.96265 83.7918 5.04005 77.7552C6.093 71.8555 8.73452 66.3337 12.2698 61.5247C14.0266 59.1456 15.979 56.9174 18.1067 54.8633C20.2896 52.7076 22.6732 50.765 25.2249 49.0618C30.4554 45.6429 36.9965 43.5783 43.1953 45.3394C48.7061 46.905 52.9474 51.3205 55.4712 56.3245C56.8837 59.1253 57.8358 62.1374 58.513 65.1939C59.1738 68.2059 59.6181 71.2614 59.8427 74.3369C60.7433 86.6091 58.338 98.8985 52.877 109.926C52.2118 111.263 51.5016 112.576 50.7465 113.866C50.701 113.938 50.6294 113.989 50.5468 114.01C50.4641 114.03 50.3768 114.017 50.3033 113.974C50.2298 113.931 50.1759 113.861 50.1529 113.779C50.1299 113.697 50.1396 113.61 50.18 113.535Z" fill="#D7D7D7" />
		<path d="M109.903 101.24C110.134 100.914 110.291 100.541 110.363 100.147C110.435 99.7533 110.419 99.3488 110.317 98.9618C110.216 98.5749 110.031 98.2149 109.775 97.9073C109.519 97.5997 109.199 97.352 108.837 97.1815L101.254 73.438L95.9725 76.1814L105.087 98.6578C104.841 99.2848 104.833 99.9803 105.066 100.613C105.298 101.245 105.755 101.77 106.348 102.088C106.942 102.406 107.632 102.496 108.287 102.339C108.942 102.183 109.517 101.792 109.903 101.24Z" fill="#FFB6B6" />
		<path d="M103.708 76.7218C103.78 76.5611 103.817 76.3866 103.816 76.2103C103.815 76.0339 103.776 75.8599 103.702 75.7001L101.105 70.116C100.848 69.2511 100.26 68.5231 99.4676 68.0915C98.6754 67.66 97.7445 67.5601 96.8788 67.8138C96.0132 68.0676 95.2834 68.6542 94.8496 69.4451C94.4157 70.2359 94.3131 71.1666 94.5643 72.033L95.4324 78.1502C95.4572 78.3248 95.5193 78.4919 95.6146 78.6404C95.7098 78.7888 95.8359 78.9149 95.9842 79.0102C96.1326 79.1055 96.2998 79.1677 96.4743 79.1925C96.6489 79.2174 96.8268 79.2043 96.9959 79.1542L102.938 77.3937C103.107 77.3437 103.263 77.2578 103.396 77.1418C103.529 77.0258 103.635 76.8826 103.708 76.7218Z" fill="#3B3A4E" />
		<path d="M81.8006 77.6641C83.6053 82.3897 83.1442 87.3463 80.9215 92.4825H96.6666C96.0338 88.8281 96.2905 85.4319 98.6348 82.6418L81.8006 77.6641Z" fill="#FFB6B6" />
		<path d="M100.228 69.014L95.5678 65.6037L87.9426 63.4722L81.5883 64.7511L81.2148 68.2846C80.7604 72.5826 79.6036 87.3535 80.4459 91.5918H97.3805L100.016 82.0161C100.016 82.0161 103.828 78.1794 100.863 73.9165L100.228 69.014Z" fill="#3B3A4E" />
		<path d="M59.7555 45.2746C59.6515 45.6609 59.6334 46.0653 59.7026 46.4594C59.7718 46.8534 59.9266 47.2275 60.156 47.5552C60.3854 47.883 60.6839 48.1565 61.0305 48.3564C61.377 48.5563 61.7632 48.6778 62.1617 48.7124L77.5012 68.3582L81.5049 63.9549L65.1677 46.0283C65.1814 45.3549 64.9475 44.6999 64.5105 44.1873C64.0734 43.6748 63.4635 43.3404 62.7964 43.2475C62.1293 43.1546 61.4512 43.3096 60.8907 43.6832C60.3303 44.0568 59.9264 44.6231 59.7555 45.2746Z" fill="#FFB6B6" />
		<path d="M74.0616 66.1287C74.0492 66.3046 74.0748 66.4811 74.1369 66.6461C74.1989 66.8112 74.2958 66.9609 74.421 67.0851L78.792 71.4235C79.332 72.1462 80.1365 72.6253 81.0292 72.7557C81.9218 72.8862 82.8298 72.6573 83.554 72.1194C84.2782 71.5814 84.7595 70.7782 84.8925 69.8859C85.0254 68.9936 84.7991 68.085 84.2631 67.3593L81.3295 61.9217C81.2457 61.7665 81.1295 61.6312 80.9888 61.525C80.8481 61.4188 80.6861 61.3441 80.5139 61.3061C80.3417 61.2682 80.1633 61.2677 79.991 61.3049C79.8186 61.3421 79.6563 61.416 79.515 61.5215L74.551 65.2316C74.4097 65.3371 74.2928 65.4719 74.2083 65.6267C74.1239 65.7815 74.0738 65.9527 74.0616 66.1287Z" fill="#3B3A4E" />
		<path d="M100.208 156.76H97.7949L96.647 147.453H100.208L100.208 156.76Z" fill="#FFB6B6" />
		<path d="M101.024 155.569L97.2098 155.342V156.976L93.5837 159.48C93.4045 159.604 93.2696 159.782 93.1987 159.987C93.1277 160.193 93.1243 160.416 93.1891 160.624C93.2539 160.832 93.3834 161.014 93.5587 161.142C93.734 161.271 93.946 161.341 94.1637 161.341H98.7045L99.4872 159.725L99.7928 161.341H101.505L101.024 155.569Z" fill="#2F2E41" />
		<path d="M83.15 156.76H80.7372L79.5894 147.453H83.1504L83.15 156.76Z" fill="#FFB6B6" />
		<path d="M83.9673 155.569L80.1532 155.342V156.976L76.527 159.48C76.3479 159.604 76.213 159.782 76.142 159.987C76.071 160.193 76.0677 160.416 76.1325 160.624C76.1972 160.832 76.3268 161.014 76.5021 161.142C76.6774 161.271 76.8894 161.341 77.107 161.341H81.6479L82.4306 159.725L82.7362 161.341H84.4482L83.9673 155.569Z" fill="#2F2E41" />
		<path d="M76.7404 104.617V109.363L77.204 115.16C77.204 115.16 77.3505 120.222 77.5276 124.215C77.6347 126.643 77.7551 128.674 77.86 128.937C77.989 129.258 77.9585 130.135 77.8841 131.056C77.7966 132.121 77.6522 133.245 77.6282 133.621C77.5823 134.323 77.9541 137.339 77.9541 137.339C77.9541 137.339 78.3696 144.901 78.9731 145.504C79.5767 146.108 78.9731 147.824 78.9731 147.824C81.8028 149.911 85.3762 147.361 85.3762 147.361C84.5866 146.103 85.8398 137.52 85.8398 137.52C85.8398 137.52 86.0235 134.59 86.3951 133.802C86.7669 133.015 86.861 128.097 86.861 128.097V120.813C86.861 120.813 87.8363 119.321 87.9741 118.626C88.1118 117.931 87.9741 115.473 87.9741 115.473L88.9932 112.039L89.6908 114.729C89.6908 114.729 91.497 122.245 91.8229 123.172C92.1487 124.1 91.6391 125.029 91.6391 125.029C91.6391 125.029 91.1734 126.459 91.6391 127.115C91.9286 127.526 92.1501 127.981 92.2952 128.462C92.2952 128.462 92.5336 131.2 92.9512 132.18C93.3689 133.16 93.7385 134.367 93.7385 134.367C93.7385 134.367 93.6402 136.217 94.0578 136.634C94.4755 137.052 94.6132 139.141 94.6132 139.141C94.6132 139.141 94.5214 141.504 95.0791 142.34C95.6367 143.175 95.6367 147.907 95.6367 147.907C96.6038 148.528 97.7182 148.881 98.8663 148.93C100.014 148.978 101.155 148.721 102.171 148.185C102.171 148.185 101.62 147.669 102.038 145.264C102.455 142.858 101.738 136.309 101.738 136.309C101.738 136.309 101.83 134.647 101.366 133.903C100.903 133.16 101.6 131.723 101.414 131.073C101.228 130.424 100.671 126.897 100.671 126.897C100.671 126.897 100.903 118.221 100.903 117.758C100.957 116.933 101.181 116.127 101.559 115.392C101.976 114.65 101.559 109.269 101.559 109.269C101.559 109.269 100.575 106.487 100.903 105.883C101.231 105.28 100.684 104.213 100.684 104.213C100.684 104.213 101.193 102.96 100.684 102.728C100.174 102.496 100.08 101.569 100.08 101.569L99.7261 97.0683C99.7261 97.0683 99.5926 95.0258 99.1684 94.9339C98.7442 94.8421 98.9301 94.0548 98.5124 93.4972C98.3088 93.1202 98.1685 92.7124 98.0969 92.2901C98.0378 92.032 97.9832 91.763 97.9372 91.505C97.806 90.8052 97.7251 90.2017 97.7251 90.2017C94.9872 92.476 80.5914 90.8818 80.576 90.8818C79.662 91.0808 78.5751 94.2538 77.7901 97.0202C77.0922 99.4921 76.7389 102.049 76.7404 104.617Z" fill="#2F2E41" />
		<path d="M87.2114 57.5011C86.1621 54.0493 88.1097 50.4005 91.5614 49.3512C95.0132 48.3018 98.6621 50.2494 99.7114 53.7012C100.761 57.153 98.8131 60.8018 95.3613 61.8511C91.9096 62.9004 88.2607 60.9529 87.2114 57.5011Z" fill="#FFB6B6" />
		<path d="M100.844 56.7397L98.3147 56.2134L97.849 52.8565L96.9757 55.9348L95.7667 55.6832L95.495 53.725L94.9855 55.5207L86.0021 53.6514C86.1871 52.7624 86.5454 51.9184 87.0565 51.1678C87.5677 50.4173 88.2216 49.7747 88.9811 49.2768C89.7406 48.779 90.5907 48.4356 91.4829 48.2663C92.375 48.097 93.2918 48.105 94.1809 48.29L95.4828 48.5609C97.2784 48.9346 98.852 50.0061 99.8574 51.54C100.863 53.0738 101.218 54.9442 100.844 56.7397Z" fill="#2F2E41" />
		<path d="M74.967 7.6204L74.9837 7.65229C78.2827 6.13243 82.0399 5.93988 85.477 7.11453C88.9141 8.28918 91.7676 10.741 93.4464 13.9621C95.1252 17.1831 95.5005 20.9265 94.4947 24.4168C93.4888 27.907 91.1789 30.8766 88.0435 32.7102L88.0601 32.7421L62.9384 45.8352L49.8453 20.7134C48.9835 19.0637 48.4552 17.2603 48.2908 15.4064C48.1263 13.5524 48.3288 11.6842 48.8868 9.90849C49.4448 8.13283 50.3472 6.48455 51.5426 5.05787C52.7379 3.63119 54.2028 2.45408 55.8533 1.59384C57.5038 0.733607 59.3078 0.207104 61.1619 0.0444351C63.016 -0.118234 64.8841 0.0861186 66.6592 0.645812C68.4343 1.20551 70.0817 2.10957 71.5072 3.30631C72.9327 4.50306 74.1084 5.96902 74.967 7.6204Z" fill="#306FDB" />
		<path d="M136.814 71.2675V71.3034C140.442 71.4804 143.863 73.0462 146.368 75.6764C148.873 78.3066 150.271 81.7997 150.271 85.4319C150.271 89.0642 148.873 92.5573 146.368 95.1875C143.863 97.8177 140.442 99.3835 136.814 99.5605V99.5964L108.485 99.5964L108.485 71.2675C108.484 69.4062 108.849 67.5629 109.56 65.8428C110.271 64.1227 111.314 62.5596 112.629 61.2429C113.945 59.9261 115.507 58.8815 117.226 58.1689C118.946 57.4562 120.789 57.0894 122.65 57.0894C124.511 57.0894 126.354 57.4562 128.074 58.1689C129.793 58.8815 131.355 59.9261 132.67 61.2429C133.986 62.5596 135.029 64.1227 135.74 65.8428C136.451 67.5629 136.816 69.4062 136.814 71.2675Z" fill="#306FDB" />
		<path d="M4.79057 161.785H146.342C146.411 161.785 146.477 161.757 146.526 161.709C146.575 161.66 146.603 161.594 146.603 161.525C146.603 161.455 146.575 161.389 146.526 161.34C146.477 161.292 146.411 161.264 146.342 161.264H4.79057C4.72153 161.264 4.6553 161.292 4.60646 161.34C4.55763 161.389 4.5302 161.455 4.5302 161.525C4.5302 161.594 4.55763 161.66 4.60646 161.709C4.6553 161.757 4.72153 161.785 4.79057 161.785Z" fill="#CACACA" />
		<path d="M27.3277 98.0314C24.4342 98.0133 21.6365 96.992 19.4118 95.1418C17.147 93.2372 15.6564 90.5704 15.2206 87.6434C14.9648 85.9887 15.0472 84.2993 15.463 82.6774C15.4884 82.5962 15.5444 82.528 15.6191 82.4873C15.6938 82.4466 15.7815 82.4365 15.8635 82.4591C15.9455 82.4817 16.0156 82.5353 16.0589 82.6085C16.1022 82.6818 16.1153 82.769 16.0956 82.8518C15.3944 85.6057 15.7108 88.5202 16.9865 91.0596C17.9666 92.9583 19.4493 94.5514 21.2729 95.6652C23.0965 96.7789 25.1909 97.3704 27.3277 97.3753C27.4127 97.3783 27.4933 97.4141 27.5524 97.4753C27.6115 97.5365 27.6445 97.6183 27.6445 97.7033C27.6445 97.7884 27.6115 97.8702 27.5524 97.9314C27.4933 97.9926 27.4127 98.0284 27.3277 98.0314Z" fill="#D7D7D7" />
		<path d="M77.985 12.8197C79.8515 11.0478 82.7989 11.0524 84.9546 12.2859C87.3737 13.6702 88.4704 16.5305 88.415 19.2162C88.3526 22.2388 86.8747 24.9757 84.9665 27.2424C82.9327 29.5977 80.566 31.6435 77.9412 33.3151C75.3236 35.0198 72.4913 36.3695 69.5186 37.3288C69.1527 37.4468 68.7849 37.5586 68.4152 37.6642C68.3324 37.684 68.2452 37.6708 68.172 37.6275C68.0987 37.5842 68.0451 37.5142 68.0225 37.4321C67.9999 37.3501 68.01 37.2625 68.0507 37.1878C68.0915 37.1131 68.1596 37.0571 68.2408 37.0316C73.9497 35.4003 79.14 32.3208 83.3077 28.092C85.2918 26.0599 87.0551 23.6176 87.5974 20.7749C88.0763 18.2645 87.547 15.3497 85.6013 13.5616C83.7099 11.8233 80.3995 11.4319 78.4489 13.2836C78.1427 13.5742 77.678 13.1111 77.985 12.8197Z" fill="white" />
		<path d="M137.3 78.1689C139.821 77.8553 142.189 79.6287 143.171 81.8687C144.272 84.3806 143.53 87.2761 141.932 89.3991C140.173 91.7371 137.508 93.1 134.723 93.8235C131.733 94.6001 128.559 94.8098 125.481 94.6663C121.842 94.4977 118.252 93.7679 114.836 92.5026C114.444 92.3569 114.613 91.7226 115.01 91.87C120.696 93.9811 127.026 94.6472 133.005 93.5326C135.678 93.0344 138.4 92.0839 140.391 90.161C142.196 88.4186 143.473 85.7799 142.93 83.2317C142.39 80.6995 139.982 78.4913 137.3 78.8249C136.882 78.8769 136.885 78.2204 137.3 78.1689Z" fill="white" />
		<path d="M95.3523 46.0338C94.7425 43.596 95.9236 40.9811 97.7525 39.2578C99.5814 37.5344 101.968 36.544 104.33 35.6864C106.214 35.0025 108.42 34.4077 110.125 35.461C111.495 36.3074 112.089 37.9514 112.872 39.3584C114.364 42.0395 116.772 44.0939 119.654 45.1458C122.537 46.1976 125.702 46.1767 128.57 45.0868C127.559 48.0218 124.077 49.4575 120.979 49.2581C117.881 49.0587 115.02 47.6321 112.134 46.4881C109.248 45.3441 106.038 44.4602 103.072 45.3764C101.82 45.763 100.682 46.4532 99.4422 46.8779C98.2027 47.3025 96.7522 47.429 95.6476 46.7244" fill="#2F2E41" />
		<path d="M51.9631 135.318L54.0748 131.601C54.1203 131.529 54.1919 131.478 54.2746 131.458C54.3573 131.437 54.4446 131.45 54.5181 131.493C54.5915 131.536 54.6455 131.606 54.6685 131.688C54.6915 131.77 54.6817 131.857 54.6413 131.932L52.5296 135.649C52.4842 135.721 52.4125 135.773 52.3298 135.793C52.2471 135.813 52.1598 135.8 52.0864 135.758C52.0129 135.715 51.959 135.645 51.936 135.563C51.913 135.481 51.9227 135.393 51.9631 135.318Z" fill="#D7D7D7" />
	</g>
	<defs>
		<clipPath id="clip0_2843_1503">
			<rect width="149.91" height="161.784" fill="white" transform="matrix(-1 0 0 1 150.271 0)" />
		</clipPath>
	</defs>
</svg>
