<svg version="1.1" id="Layer_1" xmlns="http://www.w3.org/2000/svg" xmlns:xlink="http://www.w3.org/1999/xlink" x="0px" y="0px"
	 width="100%" viewBox="0 0 1024 1024" enable-background="new 0 0 1024 1024" xml:space="preserve">
<path fill="#000000" opacity="1.000000" stroke="none" 
	d="
M676.798462,196.067169 
	C770.567322,246.584946 831.320923,322.855896 858.735046,425.473999 
	C868.272095,461.173737 871.374939,497.670868 869.027832,534.389038 
	C864.110840,611.307251 837.474121,680.057617 788.280334,739.595642 
	C736.770691,801.936584 671.362366,842.226746 592.624573,860.672668 
	C553.688477,869.794128 514.265442,871.791077 474.528076,867.434631 
	C392.576447,858.450012 321.962494,825.000854 263.241272,767.411743 
	C208.450287,713.676941 174.539276,648.563965 161.493515,572.768311 
	C155.894409,540.237610 154.965134,507.567871 158.581924,474.775909 
	C168.002975,389.358734 203.661087,316.535156 265.070984,256.693146 
	C316.831116,206.254547 378.874695,175.031311 449.941467,161.869400 
	C477.900879,156.691177 506.169189,155.178131 534.487549,156.948761 
	C584.453552,160.072906 631.890564,172.890442 676.798462,196.067169 
M734.299194,250.214661 
	C716.113037,234.957413 696.604492,221.640762 675.647278,210.486160 
	C619.700806,180.708237 560.136963,167.081711 496.735687,170.056168 
	C473.027802,171.168427 449.681030,174.399414 426.788239,180.461273 
	C356.789673,198.996460 297.972443,235.639526 251.012619,290.788544 
	C201.567581,348.856110 174.476822,416.290161 169.522858,492.297577 
	C166.896118,532.599060 171.219284,572.372070 182.874924,611.222656 
	C196.959427,658.169189 219.804291,700.341248 251.705307,737.518616 
	C288.057098,779.882812 332.174469,811.605835 383.887970,832.656982 
	C417.907227,846.505371 453.236267,854.562561 489.948669,856.974060 
	C518.359558,858.840149 546.550171,857.501038 574.467346,852.313843 
	C639.602600,840.211182 696.964294,812.098206 745.601685,766.970337 
	C812.994324,704.440674 849.767517,626.936768 856.460083,535.406372 
	C858.538818,506.975861 856.923584,478.473602 851.419006,450.375000 
	C835.732300,370.301178 796.802979,303.753754 734.299194,250.214661 
z"/>
<path fill="#000000" opacity="1.000000" stroke="none" 
	d="
M655.047607,795.118835 
	C621.767639,811.640564 587.177551,822.559265 550.518433,826.429871 
	C449.326416,837.114014 361.960754,807.014648 289.581207,735.701172 
	C243.341003,690.142029 214.818985,634.499451 203.022751,570.584717 
	C197.653687,541.493652 196.680084,512.217834 199.440521,482.626678 
	C210.400055,365.142639 288.408936,263.440735 396.940186,220.552582 
	C426.231171,208.977707 456.576996,201.976440 488.034424,199.584167 
	C548.875305,194.957367 606.500916,206.345886 660.292786,235.048645 
	C726.476624,270.363647 774.298706,322.855225 803.752869,391.953857 
	C815.315918,419.080719 822.751221,447.363525 826.020264,476.591705 
	C833.530457,543.740051 821.470398,607.235779 788.616821,666.449951 
	C757.339111,722.823914 712.626099,765.425232 655.047607,795.118835 
M592.409363,814.783630 
	C623.242126,806.637024 652.328796,794.381958 679.037109,776.915710 
	C765.481079,720.384277 813.403809,640.373474 823.502563,537.781616 
	C825.839233,514.043396 824.461243,490.234680 820.805969,466.604248 
	C811.355042,405.506012 786.802795,351.072784 744.661011,306.005219 
	C662.185059,217.803040 560.622253,185.474808 442.542664,210.703003 
	C367.601379,226.714539 307.642853,268.099518 262.043762,329.569824 
	C227.951141,375.528748 208.399780,427.329285 203.106171,484.448578 
	C200.275818,514.988708 201.536514,545.308411 207.768204,575.310913 
	C221.320175,640.557129 252.250977,696.252380 301.133209,741.606323 
	C355.679382,792.215271 420.428436,819.754333 494.605804,824.512939 
	C527.350037,826.613586 559.798828,823.459961 592.409363,814.783630 
z"/>
<path fill="#000000" opacity="1.000000" stroke="none" 
	d="
M329.648560,748.389465 
	C286.500458,714.153076 254.900970,671.770935 235.098206,620.724304 
	C225.115372,594.990967 218.917480,568.349731 216.592102,540.798157 
	C210.284760,466.066864 228.561188,397.943207 272.980621,337.560303 
	C317.397491,277.180878 376.578125,237.941559 450.115326,222.858734 
	C549.590820,202.455872 638.171936,226.447296 713.924622,294.187439 
	C765.304688,340.132874 796.372314,398.152069 806.854736,466.153625 
	C820.438904,554.277771 799.181824,633.875793 742.573669,703.058594 
	C696.476868,759.395203 636.791565,793.644775 565.282288,806.883423 
	C537.000183,812.119385 508.444702,812.786194 479.753601,809.530457 
	C424.064636,803.211060 374.253387,782.730408 329.648560,748.389465 
M665.937988,262.595215 
	C600.062073,223.061646 529.137268,210.689255 454.080688,225.695023 
	C385.442169,239.417648 328.491211,274.120697 284.676788,328.742432 
	C228.811630,398.387451 208.541794,478.183716 223.800232,565.895630 
	C236.491974,638.853149 272.977844,698.832825 331.407318,744.526672 
	C399.931671,798.115173 477.806854,817.155212 563.486816,803.299316 
	C606.717163,796.308289 646.461975,779.778625 681.971436,754.099915 
	C757.621399,699.393677 799.049500,625.068298 806.454895,532.129822 
	C808.479858,506.715820 806.782043,481.194519 801.416260,456.127319 
	C783.586609,372.832581 738.535522,308.491577 665.937988,262.595215 
z"/>
<path fill="#000000" opacity="1.000000" stroke="none" 
	d="
M250.649933,471.854004 
	C265.127380,389.691528 307.840179,327.185028 378.851410,284.366486 
	C411.526550,264.663940 447.194977,253.276733 485.254639,249.597168 
	C562.681274,242.111633 631.066406,263.807373 689.329651,315.035675 
	C736.931274,356.889801 765.989563,409.801636 775.282532,472.698425 
	C787.143494,552.975830 767.046204,624.857666 714.500305,686.710693 
	C673.443054,735.039978 620.987122,765.185791 558.258240,775.252380 
	C467.096771,789.881714 388.022430,764.227539 322.796844,698.924500 
	C282.924286,659.004517 259.237091,610.219788 250.541428,554.314453 
	C246.286575,526.959534 246.391357,499.628662 250.649933,471.854004 
M720.328247,657.851868 
	C762.446472,595.613464 775.538513,527.708496 758.533508,454.570557 
	C745.941284,400.412170 717.686035,355.250183 674.790100,319.907166 
	C615.084106,270.713867 546.349670,252.301285 470.198059,264.851410 
	C406.961609,275.273041 354.946869,306.528137 315.247314,356.819550 
	C269.393951,414.906677 252.443619,481.271698 263.734009,554.304504 
	C271.579926,605.056519 293.454010,649.588379 329.209473,686.550903 
	C391.947113,751.406555 468.707458,776.899170 557.400452,762.102417 
	C625.620789,750.721191 679.552673,714.647949 720.328247,657.851868 
z"/>
<path fill="#000000" opacity="1.000000" stroke="none" 
	d="
M392.974976,537.855225 
	C391.109283,540.442871 389.611450,542.877441 387.730713,544.967407 
	C384.302063,548.777405 380.034821,550.288269 375.138397,548.088318 
	C369.774902,545.678528 364.554199,545.645630 359.232727,548.094482 
	C355.587708,549.771790 352.162384,549.360901 348.934753,546.867432 
	C338.135040,538.524353 331.540466,517.640442 335.666046,504.677521 
	C339.222748,493.502075 349.455872,488.112335 360.421570,492.085785 
	C364.621582,493.607635 368.274414,493.713409 372.406647,491.981171 
	C379.174011,489.144318 385.734222,489.944946 391.754242,494.358521 
	C394.767914,496.568024 395.334930,498.362671 392.223969,501.414398 
	C385.029755,508.471619 385.252380,519.193604 393.004059,525.048828 
	C397.091278,528.136047 397.098206,530.775208 394.874725,534.497070 
	C394.277740,535.496399 393.736816,536.529236 392.974976,537.855225 
z"/>
<path fill="#000000" opacity="1.000000" stroke="none" 
	d="
M472.379517,532.226807 
	C466.654022,537.986145 463.461456,538.511108 452.859711,535.382507 
	C452.859711,538.868958 452.906738,542.157593 452.843628,545.444092 
	C452.799469,547.742981 451.876221,549.249939 449.223877,549.135376 
	C446.582581,549.021118 446.525574,547.294495 446.518555,545.315247 
	C446.476532,533.499756 447.082031,521.676941 446.116821,509.870056 
	C445.994843,508.378235 445.983582,506.625488 447.743103,506.062836 
	C450.070404,505.318665 452.005920,505.990417 452.636688,508.661469 
	C460.668488,504.136688 466.758484,504.201538 471.278839,508.658295 
	C476.526520,513.832092 477.087311,523.686401 472.379517,532.226807 
M469.037964,521.488098 
	C468.943573,520.330933 468.945557,519.156189 468.737823,518.019775 
	C467.916260,513.524780 464.611328,510.449097 460.746826,510.497894 
	C456.868866,510.546844 453.446075,514.192383 453.096649,518.870361 
	C452.936707,521.011658 452.912109,523.206726 453.193176,525.328796 
	C453.922668,530.837097 459.460175,533.672974 464.431763,531.155518 
	C468.030334,529.333313 468.781250,525.961487 469.037964,521.488098 
z"/>
<path fill="#000000" opacity="1.000000" stroke="none" 
	d="
M481.692871,529.999390 
	C481.686188,523.186340 481.628510,516.872559 481.704987,510.560394 
	C481.725525,508.867889 481.053986,506.650879 483.557892,505.988708 
	C485.817413,505.391144 487.421509,506.272034 487.673126,508.837372 
	C496.168823,503.968262 502.488159,504.180237 507.080139,509.208344 
	C512.158997,514.769592 512.684143,524.956238 508.231506,531.541565 
	C504.106720,537.642090 497.769623,538.931885 488.272247,535.039917 
	C488.272247,538.564026 488.278687,541.761902 488.269958,544.959778 
	C488.264191,547.070679 488.077362,549.027954 485.244507,549.145508 
	C482.211945,549.271362 481.686279,547.383240 481.694763,544.953003 
	C481.711609,540.135132 481.695007,535.317200 481.692871,529.999390 
M488.291718,519.818787 
	C488.316437,521.639099 488.164093,523.482605 488.398438,525.275513 
	C489.158173,531.088318 495.712921,534.080261 500.475647,530.710205 
	C504.280670,528.017883 504.909302,523.863708 504.560364,519.609253 
	C504.129578,514.357117 500.530212,510.522308 496.377411,510.492981 
	C492.275696,510.464020 489.339386,513.552002 488.291718,519.818787 
z"/>
<path fill="#000000" opacity="1.000000" stroke="none" 
	d="
M426.841919,494.968353 
	C431.834595,508.717712 436.559204,522.168274 441.351257,535.810974 
	C437.403442,537.571289 434.936523,537.321655 433.705750,533.476685 
	C433.452301,532.684875 433.124054,531.917175 432.837341,531.135803 
	C430.386780,524.457153 424.721008,521.744507 417.742554,523.838135 
	C416.242340,524.288269 415.687134,525.370117 415.262482,526.683777 
	C414.545929,528.900635 413.857819,531.130249 413.037415,533.309143 
	C411.544312,537.274597 410.790710,537.528564 405.684845,535.597778 
	C406.871124,532.075867 408.077148,528.508667 409.274292,524.938538 
	C412.184509,516.259644 415.202423,507.614624 417.953094,498.885406 
	C419.422302,494.222839 422.047241,492.697906 426.841919,494.968353 
M420.554932,510.009674 
	C420.147400,512.697388 417.868500,515.017273 418.859924,518.179749 
	C421.883606,518.865356 424.779419,518.911621 428.194000,518.029297 
	C427.170380,512.808350 425.347076,508.108002 423.108368,502.423920 
	C422.085205,505.518494 421.460571,507.407684 420.554932,510.009674 
z"/>
<path fill="#000000" opacity="1.000000" stroke="none" 
	d="
M597.778687,531.061584 
	C599.569214,531.136292 600.902588,531.147095 602.219666,531.298889 
	C603.732666,531.473267 604.623657,532.337097 604.653137,533.930298 
	C604.686462,535.734375 603.762878,536.865479 602.000122,536.881165 
	C593.355957,536.957764 584.689453,537.303284 576.075073,536.798584 
	C571.680237,536.541077 573.146118,533.223328 574.691711,530.899597 
	C579.479126,523.701843 584.430847,516.613586 589.245544,509.433685 
	C591.257812,506.432922 593.684998,503.668213 595.272217,499.426300 
	C589.588196,499.426300 584.323792,499.429047 579.059387,499.424805 
	C577.208435,499.423309 575.143311,499.632935 575.182312,496.869659 
	C575.217041,494.408051 576.990906,493.933777 578.972534,493.924103 
	C585.791077,493.890839 592.610779,493.816772 599.428040,493.909485 
	C604.639465,493.980377 605.715759,495.941772 602.783997,500.401581 
	C597.304749,508.736572 591.598511,516.922180 586.001526,525.179993 
	C584.987671,526.675781 584.044617,528.219604 582.624634,530.434082 
	C587.896240,531.713623 592.658875,530.731812 597.778687,531.061584 
z"/>
<path fill="#000000" opacity="1.000000" stroke="none" 
	d="
M643.984070,511.233459 
	C644.150818,508.886108 643.359680,506.545776 646.186218,505.905792 
	C648.290771,505.429291 649.721558,506.310242 650.530151,508.465210 
	C654.306396,506.114197 658.068665,504.166962 662.704285,505.613678 
	C666.994202,506.952515 669.366516,509.926910 670.254456,514.081726 
	C671.623230,520.485901 670.929871,527.000671 670.883911,533.473328 
	C670.866272,535.962341 669.464783,537.083557 667.014832,536.863037 
	C664.498779,536.636658 664.373474,534.896301 664.421814,532.893311 
	C664.549805,527.584900 664.891541,522.283691 664.026978,516.974976 
	C663.397461,513.109192 661.461426,510.638031 657.533997,510.861633 
	C653.542114,511.088898 651.189270,513.660828 651.040955,517.744080 
	C650.866089,522.559875 650.975098,527.385437 650.854004,532.204041 
	C650.799988,534.351990 650.856445,536.786438 647.703552,536.874451 
	C644.389465,536.967041 644.061523,534.673462 644.055237,532.154968 
	C644.038208,525.337646 644.011597,518.520325 643.984070,511.233459 
z"/>
<path fill="#000000" opacity="1.000000" stroke="none" 
	d="
M552.684692,508.259979 
	C553.630920,509.475159 554.420105,510.362946 554.948730,511.385468 
	C559.450684,520.094666 557.739990,523.007202 548.154968,523.049683 
	C545.491455,523.061523 542.826782,523.045837 540.164856,523.120239 
	C538.875671,523.156311 537.328430,522.892456 536.656372,524.403320 
	C535.959534,525.969910 536.831055,527.315796 537.709290,528.545044 
	C540.191406,532.019287 543.878723,531.796021 547.593750,532.020264 
	C549.981750,532.164368 554.228516,529.067078 554.491638,533.641724 
	C554.741455,537.986023 549.999268,536.976196 547.162292,537.261230 
	C533.135498,538.670288 527.420349,528.248352 530.216125,516.490356 
	C532.759460,505.793732 542.987366,502.071289 552.684692,508.259979 
M541.743835,517.813843 
	C544.570679,517.480530 547.616455,518.627258 550.373901,516.704224 
	C549.655518,512.599792 547.566956,510.199585 543.397827,510.322906 
	C539.351868,510.442566 537.292542,512.855896 536.591431,516.549133 
	C537.877441,518.185730 539.472412,517.651855 541.743835,517.813843 
z"/>
<path fill="#000000" opacity="1.000000" stroke="none" 
	d="
M636.908936,528.432617 
	C632.161560,536.893738 623.763184,539.770386 615.997192,535.907898 
	C608.798950,532.327881 605.869019,522.681274 609.388184,514.147888 
	C612.432434,506.766296 621.033020,503.243530 629.051453,506.093994 
	C636.768127,508.837158 640.080627,517.916931 636.908936,528.432617 
M628.483032,529.946777 
	C630.810913,527.526367 631.687988,524.579956 631.675232,521.288086 
	C631.649170,514.586060 627.950073,510.068848 622.688904,510.351807 
	C617.823181,510.613525 613.925720,516.168640 614.455200,522.202759 
	C614.555664,523.346985 614.910217,524.486328 615.271362,525.587341 
	C617.400024,532.078491 621.949097,533.810669 628.483032,529.946777 
z"/>
<path fill="#000000" opacity="1.000000" stroke="none" 
	d="
M686.599609,523.122925 
	C683.317932,523.366272 682.884460,524.926331 683.936340,527.255554 
	C685.219055,530.096069 687.495422,531.685364 690.551392,531.782715 
	C693.355225,531.872070 696.179688,531.657227 698.978943,531.400513 
	C700.411804,531.268982 701.156189,531.804382 701.621704,533.042053 
	C702.109009,534.337891 701.687195,535.218079 700.566284,535.990356 
	C696.429932,538.840271 684.785095,537.346741 680.853333,533.414368 
	C675.870361,528.430542 675.127686,518.161865 679.273621,511.570282 
	C682.876404,505.842285 689.909424,503.605133 696.299988,506.154266 
	C700.903687,507.990601 704.877686,515.292664 703.996094,520.121643 
	C703.565979,522.477600 701.915039,522.912903 699.975891,522.948059 
	C695.658813,523.026428 691.340637,523.049866 686.599609,523.122925 
M684.679504,517.549072 
	C688.877930,517.802063 693.093201,518.284851 697.390808,517.097046 
	C696.620911,512.418701 694.451050,509.793091 689.990417,510.361572 
	C686.263855,510.836487 683.464905,512.661194 684.679504,517.549072 
z"/>
<path fill="#000000" opacity="1.000000" stroke="none" 
	d="
M516.820068,518.997681 
	C516.825867,511.194794 516.814636,503.891388 516.850403,496.588226 
	C516.862000,494.216736 516.778503,491.724854 520.303406,491.808868 
	C523.586304,491.887146 523.325623,494.260681 523.328369,496.411041 
	C523.343994,508.527924 523.326538,520.644775 523.323120,532.761658 
	C523.322510,534.864014 523.237427,536.893127 520.319275,536.847961 
	C517.737610,536.807922 516.888123,535.240051 516.876892,532.941528 
	C516.854980,528.460083 516.839478,523.978638 516.820068,518.997681 
z"/>
<path fill="#000000" opacity="1.000000" stroke="none" 
	d="
M378.945496,482.656006 
	C376.618805,486.573608 373.451324,488.875519 369.510071,490.000793 
	C367.248260,490.646606 365.124664,490.559601 365.184143,487.213898 
	C365.312988,479.966309 372.941559,472.630127 380.642761,472.560303 
	C382.286865,476.126373 380.671143,479.218658 378.945496,482.656006 
z"/>
</svg>