<?xml version="1.0" encoding="UTF-8" standalone="no"?>
<!DOCTYPE svg PUBLIC "-//W3C//DTD SVG 1.1//EN" "http://www.w3.org/Graphics/SVG/1.1/DTD/svg11.dtd">
<svg width="100%" height="100%" viewBox="0 0 4025 563" version="1.1" xmlns="http://www.w3.org/2000/svg" xmlns:xlink="http://www.w3.org/1999/xlink" xml:space="preserve" xmlns:serif="http://www.serif.com/" style="fill-rule:evenodd;clip-rule:evenodd;stroke-linejoin:round;stroke-miterlimit:2;">
    <g transform="matrix(1,0,0,1,-1676.37,-3123.58)">
        <path d="M2387.57,3168.33C2426.43,3224.74 2464.74,3279.8 2502.96,3334.92C2515.45,3352.92 2527.64,3371.13 2540.17,3389.1C2541.92,3391.62 2544.89,3393.28 2548.6,3396.46C2549.93,3392.89 2551.31,3390.72 2551.45,3388.47C2551.82,3382.5 2551.69,3376.49 2551.69,3370.49C2551.7,3299.86 2551.65,3229.23 2551.77,3158.6C2551.78,3151.43 2550.16,3143.9 2555.22,3136.04C2558.83,3135.45 2563.25,3134.11 2567.69,3134.09C2600.34,3133.9 2632.99,3133.95 2665.64,3134C2668.95,3134.01 2672.33,3134.14 2675.56,3134.78C2679.84,3135.62 2682.7,3138.48 2683.18,3142.87C2683.69,3147.48 2683.72,3152.17 2683.72,3156.82C2683.75,3322.73 2683.74,3488.65 2683.74,3654.56C2683.74,3655.89 2683.76,3657.22 2683.73,3658.56C2683.31,3674.32 2681.01,3676.76 2664.85,3676.9C2641.53,3677.09 2618.18,3676.31 2594.89,3677.21C2581.87,3677.71 2573.59,3671.61 2566.37,3662.33C2564.36,3659.75 2562.62,3656.96 2560.82,3654.22C2549.66,3637.21 2538.81,3619.98 2527.25,3603.24C2520.18,3593.01 2511.52,3583.87 2504.46,3573.63C2492.92,3556.89 2483.52,3538.47 2470.6,3522.94C2454.99,3504.19 2443.67,3482.59 2427.97,3463.9C2419.27,3453.55 2412.4,3441.25 2404.31,3430.11C2402.65,3427.83 2399.55,3426.59 2395.05,3423.4C2394.62,3432.33 2394.05,3438.79 2394.05,3445.25C2393.98,3513.22 2394.01,3581.18 2393.99,3649.15C2393.98,3655.14 2394.04,3661.16 2393.49,3667.11C2392.87,3673.77 2390.05,3676.12 2383.03,3676.73C2380.38,3676.96 2377.7,3676.93 2375.04,3676.93C2343.05,3676.95 2311.07,3677.01 2279.09,3676.88C2274.56,3676.87 2270.03,3675.95 2264.38,3675.34C2263.55,3671.09 2262.52,3667.39 2262.17,3663.63C2261.79,3659.67 2262.03,3655.64 2262.03,3651.64C2262.03,3488.4 2262.03,3325.15 2262.05,3161.9C2262.05,3155.91 2261.95,3149.89 2262.43,3143.93C2262.96,3137.37 2265.84,3134.63 2272.8,3134.26C2280.77,3133.84 2288.78,3133.99 2296.78,3133.97C2314.77,3133.95 2332.76,3134.16 2350.75,3133.91C2359.49,3133.79 2366.11,3136.59 2370.95,3144.18C2375.94,3152.02 2381.61,3159.42 2387.57,3168.33Z" style="fill:rgb(225,157,68);fill-rule:nonzero;"/>
        <path d="M4261.46,3347.08C4266.35,3323.12 4273.83,3301.67 4283.26,3281.18C4290.3,3265.88 4298.31,3250.67 4309.94,3237.96C4313.39,3225.06 4326.25,3219.44 4332.69,3208.68C4335.57,3203.88 4341.45,3200.87 4346.03,3197.12C4348.58,3195.02 4352.86,3193.5 4353.57,3190.95C4356.29,3181.13 4366.6,3180.85 4372.65,3175.33C4377.67,3170.75 4383.81,3165.32 4391.69,3163.72C4395.43,3162.96 4398.69,3160 4402.24,3158.18C4485.78,3115.62 4571.43,3111.31 4656.31,3150.87C4748.42,3193.8 4802.52,3267.31 4817.01,3368.74C4824.86,3423.69 4817.03,3476.55 4792.55,3526.2C4751.73,3608.99 4685.37,3660.57 4595.22,3679.5C4534.36,3692.27 4474.73,3685.62 4417.44,3660.11C4403.59,3653.94 4389.87,3647.83 4377.37,3639.2C4368.55,3639.65 4368.39,3628.42 4360.38,3626.94C4353.63,3625.69 4350.12,3619.46 4346.24,3614.03C4343.19,3609.75 4339.04,3606.18 4335.07,3602.64C4296.73,3568.45 4276.9,3523.84 4264.07,3475.52C4252.94,3433.6 4253.06,3391.21 4261.46,3347.08M4445.23,3282.94C4421.58,3300.76 4405.44,3324.03 4397.01,3352.22C4387.07,3385.4 4386.09,3419.08 4395.11,3452.7C4409.07,3504.74 4442.69,3537.52 4494.09,3552.52C4517.51,3559.35 4541.34,3560.65 4565.18,3555.78C4619.57,3544.68 4658.26,3514.52 4676.08,3460.84C4687.5,3426.45 4687.75,3391.28 4677.73,3356.58C4663.32,3306.68 4630.65,3273.89 4580.68,3259.63C4533.22,3246.09 4488.49,3252.95 4445.23,3282.94Z" style="fill:rgb(3,3,3);fill-rule:nonzero;"/>
        <path d="M4883.72,3568C4883.72,3422.1 4883.72,3278.21 4883.73,3133.57C4892.87,3133.16 4900.12,3132.55 4907.37,3132.54C4966.69,3132.46 5026.01,3132.5 5085.32,3132.49C5107.37,3132.48 5129.19,3134.43 5150.68,3139.63C5219.7,3156.31 5270.64,3211.44 5280.92,3282.38C5290.16,3346.12 5271.44,3400.77 5226.08,3445.97C5215.41,3456.62 5201.93,3464.44 5189.74,3473.56C5186.65,3475.87 5183.57,3478.19 5179.5,3481.24C5182.49,3486.38 5184.84,3490.95 5187.69,3495.19C5220.26,3543.66 5252.7,3592.23 5285.72,3640.4C5293.11,3651.2 5295.45,3661.9 5292.04,3674.97C5288.97,3675.71 5285.84,3677.09 5282.72,3677.1C5241.39,3677.22 5200.07,3677.16 5158.75,3677.08C5156.78,3677.07 5154.82,3676.48 5152.45,3676.09C5141.38,3667.52 5136.61,3654.02 5129.26,3642.65C5109.51,3612.11 5091.29,3580.58 5072.28,3549.56C5063.49,3535.22 5053.77,3521.43 5045.58,3506.76C5043.07,3502.28 5039.7,3499.88 5036.09,3497.45C5025.88,3490.61 5018.01,3494.52 5017.33,3506.55C5017.07,3511.2 5017.24,3515.87 5017.24,3520.54C5017.24,3565.2 5017.27,3609.85 5017.21,3654.51C5017.2,3661.05 5016.82,3667.59 5016.59,3674.6C5013.26,3675.64 5010.84,3677.04 5008.41,3677.05C4970.42,3677.2 4932.43,3677.2 4894.44,3677.12C4891.89,3677.11 4889.35,3676.16 4885.51,3675.38C4884.91,3670.16 4883.83,3665.08 4883.81,3659.98C4883.64,3629.99 4883.72,3599.99 4883.72,3568M5148.56,3298.71C5139.63,3274.51 5121.48,3263.41 5096.47,3262.9C5073.86,3262.45 5051.24,3262.63 5028.63,3262.75C5025.55,3262.76 5022.47,3264.03 5019.84,3264.62C5017.25,3277.59 5015.7,3337.67 5017.47,3359.14C5017.79,3362.95 5019.42,3366.65 5020.37,3370.12C5031.24,3371.51 5094.61,3372.41 5102.68,3371.39C5126.59,3368.35 5144.9,3352.34 5150.36,3329.3C5152.53,3320.13 5152.63,3310.85 5148.56,3298.71Z" style="fill:rgb(3,3,3);fill-rule:nonzero;"/>
        <path d="M1893.54,3144.14C1918.91,3139.34 1942.8,3138.01 1966.83,3139.71C2002.48,3142.24 2036.15,3152.07 2068.2,3167.7C2070.57,3168.86 2072.84,3170.31 2074.98,3171.88C2079.6,3175.26 2081.31,3179.28 2078.95,3183.96C2061.32,3218.99 2043.48,3253.91 2025.66,3288.85C2025.38,3289.38 2024.65,3289.69 2022.91,3291.07C2019.51,3289.93 2015.05,3289.04 2011.15,3287.04C1989.31,3275.87 1966.22,3271.22 1941.72,3271.68C1876.21,3272.9 1818.43,3324.78 1811,3389.84C1805.79,3435.51 1817.06,3476.25 1850.93,3508.32C1891.99,3547.2 1941,3556.24 1993.66,3538.3C2045.63,3520.59 2074.3,3481.73 2083.53,3428.14C2084.3,3423.65 2083.63,3418.92 2083.63,3413.39C2079.71,3412.27 2076.09,3410.46 2072.4,3410.31C2061.75,3409.88 2051.08,3410.19 2040.42,3410.06C2035.77,3410.01 2031.09,3409.87 2026.49,3409.28C2022.12,3408.71 2019.46,3404.38 2021.02,3400.43C2022.98,3395.49 2025.34,3390.7 2027.71,3385.94C2047.01,3347.19 2066.46,3308.52 2085.63,3269.71C2093.84,3253.09 2101.41,3236.15 2109.46,3219.45C2111.72,3214.76 2114.68,3210.42 2117.71,3205.26C2120.73,3206.33 2123.63,3206.55 2125.38,3208.09C2181.59,3257.6 2212.69,3319.84 2216.69,3394.58C2221.34,3481.25 2189.17,3553.51 2125.55,3611.49C2085.71,3647.8 2038.28,3669.1 1984.66,3676.97C1939.41,3683.62 1896.16,3677.04 1853.01,3663.01C1827.03,3654.56 1804.26,3641.04 1782.14,3626.09C1772.99,3619.9 1766.35,3610.13 1757.92,3602.73C1734.2,3581.89 1715.73,3557.18 1703.19,3528.33C1670.94,3454.16 1665.77,3379.19 1698.67,3303.71C1705.55,3287.92 1712.87,3272.14 1721.79,3257.45C1732.83,3239.27 1749.43,3225.52 1763.82,3210.04C1780.49,3192.11 1800.77,3178.9 1822.45,3168.29C1837.2,3161.07 1853.21,3156.36 1868.79,3150.92C1876.31,3148.29 1884.15,3146.55 1893.54,3144.14Z" style="fill:rgb(225,157,68);fill-rule:nonzero;"/>
        <path d="M5340.39,3300L5340.39,3135.25C5345.99,3134.18 5350.33,3133.11 5354.74,3132.58C5358.02,3132.19 5361.39,3132.48 5364.72,3132.48C5468.03,3132.48 5571.33,3132.7 5674.63,3132.34C5702.98,3132.24 5700.06,3136.26 5700.05,3157.87C5700.04,3184.53 5700.05,3211.19 5700.05,3237.85C5700.05,3244.44 5700.05,3251.04 5700.05,3255.33C5695.3,3263.05 5689.86,3262.84 5684.52,3262.84C5665.19,3262.85 5645.86,3262.85 5626.54,3262.85C5583.88,3262.85 5541.23,3262.78 5498.58,3262.91C5492.04,3262.93 5485.25,3261.49 5477.97,3265.59C5474.19,3276.46 5476.74,3288.49 5476.31,3300.23C5475.88,3312.17 5476.22,3324.14 5476.22,3334.47C5481.12,3341.34 5486.79,3340.24 5491.98,3340.25C5523.3,3340.33 5554.62,3340.29 5585.95,3340.3C5615.27,3340.3 5644.6,3340.29 5673.92,3340.3C5677.92,3340.3 5681.94,3340.18 5685.91,3340.5C5690.98,3340.91 5694.68,3344.32 5695.36,3349.12C5695.74,3351.74 5695.68,3354.43 5695.68,3357.1C5695.69,3389.75 5695.69,3422.41 5695.68,3455.07C5695.68,3457.07 5695.76,3459.08 5695.53,3461.06C5694.95,3466.09 5691.8,3469.65 5686.58,3470.24C5681.32,3470.83 5675.96,3470.79 5670.65,3470.8C5613.33,3470.83 5556.01,3470.8 5498.7,3470.85C5492.13,3470.85 5485.57,3471.28 5479.36,3471.49C5475.3,3486.64 5475.03,3528.12 5478.75,3545.96C5485.19,3549.31 5492.63,3547.91 5499.76,3547.93C5558.41,3548.05 5617.06,3547.97 5675.71,3548.03C5682.9,3548.03 5690.09,3548.45 5697.64,3548.69C5698.83,3552.31 5700.3,3554.72 5700.31,3557.14C5700.47,3594.46 5700.46,3631.77 5700.37,3669.09C5700.37,3670.93 5699.29,3672.76 5698.34,3675.78C5694.7,3676.25 5690.91,3677.16 5687.12,3677.16C5577.15,3677.24 5467.18,3677.25 5357.22,3677.18C5352.68,3677.18 5348.14,3676.35 5342.95,3675.84C5342.02,3671.45 5340.65,3667.69 5340.51,3663.89C5340.17,3654.57 5340.39,3645.23 5340.39,3635.9C5340.39,3524.6 5340.39,3413.3 5340.39,3300Z" style="fill:rgb(3,3,3);fill-rule:nonzero;"/>
        <path d="M3514.65,3330.12C3534.66,3336.83 3554.12,3337.07 3573.23,3339.55C3603.66,3343.5 3633.88,3348.68 3662.48,3360.1C3677.23,3365.99 3692.04,3372.68 3705.18,3381.47C3751.17,3412.26 3770.71,3456.87 3768.82,3511.29C3767.01,3563.22 3743.64,3604.03 3702.9,3635.51C3651.82,3674.98 3593.48,3688.52 3530.16,3683.48C3512.22,3682.06 3494.76,3677.48 3477.66,3671.74C3468.29,3668.6 3458.33,3666.59 3449.77,3661.97C3446.35,3660.13 3440.77,3660.76 3438.7,3655.23C3437.75,3652.69 3433.74,3650.13 3430.8,3649.69C3418.86,3647.88 3412.97,3637.29 3403.84,3631.48C3395.17,3625.97 3388.99,3616.89 3383.06,3607.78C3377.08,3598.61 3370.66,3589.86 3365.76,3579.94C3354.08,3556.31 3347.65,3531.4 3346.03,3505.17C3345.86,3502.53 3345.84,3499.87 3346.01,3497.23C3346.08,3495.98 3346.75,3494.77 3347.44,3492.69C3351.58,3492.1 3356.1,3491.02 3360.65,3490.86C3408.7,3489.14 3463.16,3490.17 3479.59,3493.18C3480.87,3498.29 3482.45,3503.93 3483.7,3509.64C3487.52,3527.13 3497.39,3539.41 3514.06,3546.4C3527.18,3551.91 3540.94,3554.74 3554.91,3554.48C3568.14,3554.23 3581.4,3552.24 3594.51,3550.13C3605.18,3548.41 3614.33,3543.43 3620.97,3534.27C3623.62,3530.61 3627.55,3527.87 3630.73,3524.87C3631.25,3522.58 3632.17,3520.61 3632.04,3518.71C3631.61,3512.16 3633.09,3503.77 3629.62,3499.54C3624.03,3492.71 3619.17,3483.73 3609.7,3481.05C3597.58,3477.62 3585.36,3474.18 3572.95,3472.22C3553.24,3469.1 3533.37,3466.9 3513.52,3464.85C3478.67,3461.26 3446.49,3449.11 3414.83,3435.09C3400.38,3423.29 3382.47,3414.92 3375.58,3395.6C3355.62,3367.39 3349.28,3335.19 3349.37,3301.56C3349.45,3276 3355.5,3251.57 3366.94,3228.44C3374.25,3213.64 3383.44,3200.26 3393.41,3187.19C3399.1,3179.72 3407.81,3176.27 3414.04,3169.21C3419.5,3163.02 3428.44,3159.54 3436.36,3155.5C3459.06,3143.91 3482.45,3134.89 3507.49,3130.05C3558.63,3120.16 3608.47,3124.68 3656.06,3145.7C3705.45,3167.52 3739.54,3203.87 3753.76,3256.9C3757.7,3271.57 3760.94,3286.58 3759.36,3300.86C3754.35,3306.44 3749.11,3306.83 3743.66,3306.82C3709.01,3306.78 3674.36,3306.9 3639.7,3306.66C3635.28,3306.64 3630.88,3304.84 3626.81,3303.95C3625.69,3301.12 3624.64,3299.38 3624.32,3297.51C3622.59,3287.61 3618.67,3278.88 3611.27,3271.89C3600.27,3261.51 3588.32,3253.11 3572.56,3251.71C3550.4,3249.74 3528.61,3249.95 3508.21,3260.59C3493.81,3268.1 3487.11,3280.11 3486.8,3296.18C3486.59,3307.83 3491.22,3316.91 3500.69,3323.35C3504.49,3325.93 3509.02,3327.45 3514.65,3330.12Z" style="fill:rgb(3,3,3);fill-rule:nonzero;"/>
        <path d="M3106.58,3156.15C3106.57,3184.81 3106.6,3211.48 3106.54,3238.14C3106.53,3242.8 3106.51,3247.49 3105.89,3252.09C3105.2,3257.26 3101.78,3260.34 3096.51,3260.7C3091.2,3261.08 3085.86,3260.97 3080.52,3260.98C3022.53,3260.99 2964.53,3260.93 2906.54,3261.06C2899.37,3261.07 2891.75,3259.37 2885.39,3264.55C2881.98,3281.71 2882.24,3323 2886.22,3338.96C2891.52,3339.36 2897.31,3340.17 2903.1,3340.18C2960.43,3340.27 3017.76,3340.23 3075.09,3340.24C3080.42,3340.25 3085.77,3340.12 3091.08,3340.54C3097.57,3341.05 3100.79,3344.16 3101.6,3350.39C3102.03,3353.67 3102,3357.03 3102.01,3360.36C3102.03,3390.36 3102.03,3420.35 3102,3450.35C3101.99,3453.68 3101.99,3457.04 3101.54,3460.32C3100.84,3465.37 3097.54,3468.6 3092.25,3469.03C3086.28,3469.52 3080.27,3469.57 3074.27,3469.57C3018.28,3469.62 2962.28,3469.55 2906.29,3469.7C2899.15,3469.71 2891.58,3467.98 2883.72,3473.8C2882.58,3496.71 2882.98,3520.51 2883.49,3543.02C2890.06,3550.18 2897.13,3548.13 2903.52,3548.14C2962.19,3548.29 3020.85,3548.23 3079.51,3548.24C3084.18,3548.24 3088.85,3548.09 3093.51,3548.31C3104.58,3548.83 3107.66,3551.55 3107.75,3562.94C3108.02,3595.6 3108.02,3628.26 3107.75,3660.93C3107.65,3673.32 3104.31,3676.37 3092.53,3676.9C3088.54,3677.08 3084.53,3676.95 3080.53,3676.95C2978.54,3676.96 2876.55,3676.98 2774.56,3676.91C2766.7,3676.91 2758.84,3676.32 2751.21,3676.01C2746.72,3667.9 2748.35,3660.43 2748.33,3653.32C2748.18,3594 2748.25,3534.67 2748.25,3475.34C2748.25,3371.35 2748.24,3267.35 2748.26,3163.36C2748.26,3157.36 2748.11,3151.35 2748.54,3145.37C2749.08,3137.96 2752.34,3134.87 2759.95,3134.18C2763.92,3133.83 2767.94,3133.97 2771.94,3133.97C2875.93,3133.96 2979.92,3133.96 3083.91,3133.96C3084.58,3133.96 3085.25,3133.96 3085.91,3133.97C3105.32,3134.22 3105.32,3134.22 3106.58,3156.15Z" style="fill:rgb(225,157,68);fill-rule:nonzero;"/>
        <path d="M4085.24,3659.68C4084.77,3666.11 4084.3,3670.56 4083.71,3676.2C4068.26,3678.2 4053.7,3676.96 4039.22,3677.19C4025.23,3677.41 4011.22,3677.46 3997.23,3677.18C3982.78,3676.88 3968.2,3678.46 3953.64,3676.06C3950.49,3667.83 3951.71,3660.45 3951.7,3653.3C3951.61,3529.98 3951.66,3406.66 3951.59,3283.34C3951.58,3276.17 3952.88,3268.74 3948.92,3260.83C3943.86,3260.37 3938.73,3259.51 3933.6,3259.49C3899.61,3259.36 3865.61,3259.48 3831.61,3259.37C3823.69,3259.34 3815.78,3258.71 3806.93,3258.32C3802.13,3244.23 3804.96,3230.22 3804.48,3216.54C3804,3203.22 3804.15,3189.87 3804.43,3176.55C3804.73,3162.72 3803.02,3148.76 3806.03,3133.9C3811.93,3133.39 3817.08,3132.55 3822.23,3132.55C3952.22,3132.47 4082.2,3132.49 4212.19,3132.49C4214.19,3132.49 4216.19,3132.42 4218.19,3132.54C4228.38,3133.17 4231.62,3135.94 4231.67,3145.62C4231.86,3179.61 4231.84,3213.61 4231.66,3247.6C4231.62,3255.29 4228.43,3258.42 4220.82,3259.14C4216.19,3259.57 4211.5,3259.41 4206.83,3259.41C4174.17,3259.43 4141.51,3259.39 4108.85,3259.45C4102.25,3259.46 4095.65,3259.79 4088.3,3260C4087.17,3264.39 4085.72,3268.03 4085.38,3271.77C4084.9,3277.06 4085.24,3282.43 4085.24,3287.76C4085.24,3411.08 4085.24,3534.4 4085.24,3659.68Z" style="fill:rgb(3,3,3);fill-rule:nonzero;"/>
    </g>
</svg>
